<?xml version="1.0" standalone="no"?><!-- Generator: Gravit.io --><svg xmlns="http://www.w3.org/2000/svg" xmlns:xlink="http://www.w3.org/1999/xlink" style="isolation:isolate" viewBox="0 0 738 289" width="738" height="289"><defs><clipPath id="_clipPath_grntWrCLZqsC2hdT9Im2BxUcnzTud90p"><rect width="738" height="289"/></clipPath></defs><g clip-path="url(#_clipPath_grntWrCLZqsC2hdT9Im2BxUcnzTud90p)"><rect width="738" height="289" style="fill:rgb(5,28,66)"/><g style="isolation:isolate"><path d=" M 346.5 139.378 L 346.5 145.391 L 333.897 145.391 L 333.897 158.306 L 326.081 158.306 L 326.081 125.884 L 347.77 125.884 L 347.77 131.919 L 333.897 131.919 L 333.897 139.378 L 346.5 139.378 L 346.5 139.378 Z  M 378.477 141.271 L 378.477 142.763 L 378.477 142.763 Q 378.477 147.506 376.718 151.158 L 376.718 151.158 L 376.718 151.158 Q 374.959 154.81 371.719 156.781 L 371.719 156.781 L 371.719 156.781 Q 368.479 158.751 364.337 158.751 L 364.337 158.751 L 364.337 158.751 Q 360.195 158.751 356.989 156.848 L 356.989 156.848 L 356.989 156.848 Q 353.782 154.944 351.99 151.403 L 351.99 151.403 L 351.99 151.403 Q 350.197 147.862 350.108 143.275 L 350.108 143.275 L 350.108 141.449 L 350.108 141.449 Q 350.108 136.684 351.856 133.043 L 351.856 133.043 L 351.856 133.043 Q 353.604 129.402 356.866 127.42 L 356.866 127.42 L 356.866 127.42 Q 360.128 125.439 364.293 125.439 L 364.293 125.439 L 364.293 125.439 Q 368.412 125.439 371.641 127.398 L 371.641 127.398 L 371.641 127.398 Q 374.87 129.358 376.662 132.976 L 376.662 132.976 L 376.662 132.976 Q 378.455 136.595 378.477 141.271 L 378.477 141.271 L 378.477 141.271 Z  M 370.528 142.897 L 370.528 141.405 L 370.528 141.405 Q 370.528 136.573 368.913 134.067 L 368.913 134.067 L 368.913 134.067 Q 367.299 131.562 364.293 131.562 L 364.293 131.562 L 364.293 131.562 Q 358.414 131.562 358.08 140.38 L 358.08 140.38 L 358.058 142.763 L 358.058 142.763 Q 358.058 147.528 359.639 150.089 L 359.639 150.089 L 359.639 150.089 Q 361.22 152.65 364.337 152.65 L 364.337 152.65 L 364.337 152.65 Q 367.299 152.65 368.902 150.134 L 368.902 150.134 L 368.902 150.134 Q 370.505 147.618 370.528 142.897 L 370.528 142.897 L 370.528 142.897 Z  M 400.278 158.306 L 394.555 146.86 L 390.324 146.86 L 390.324 158.306 L 382.508 158.306 L 382.508 125.884 L 395.267 125.884 L 395.267 125.884 Q 401.035 125.884 404.286 128.445 L 404.286 128.445 L 404.286 128.445 Q 407.537 131.006 407.537 135.682 L 407.537 135.682 L 407.537 135.682 Q 407.537 139.067 406.167 141.293 L 406.167 141.293 L 406.167 141.293 Q 404.798 143.52 401.881 144.901 L 401.881 144.901 L 408.65 157.972 L 408.65 158.306 L 400.278 158.306 L 400.278 158.306 Z  M 390.324 131.919 L 390.324 140.826 L 395.267 140.826 L 395.267 140.826 Q 397.494 140.826 398.619 139.657 L 398.619 139.657 L 398.619 139.657 Q 399.743 138.488 399.743 136.394 L 399.743 136.394 L 399.743 136.394 Q 399.743 134.301 398.607 133.11 L 398.607 133.11 L 398.607 133.11 Q 397.472 131.919 395.267 131.919 L 395.267 131.919 L 390.324 131.919 L 390.324 131.919 Z " fill-rule="evenodd" fill="rgb(255,255,255)"/><path d=" M 36.085 173.003 L 701.915 173.003 L 701.915 173.003 L 701.915 173.003" fill="none" vector-effect="non-scaling-stroke" stroke-width="1" stroke="rgb(255,255,255)" stroke-linejoin="miter" stroke-linecap="square" stroke-miterlimit="3"/><path d=" M 36.085 115.997 L 701.915 115.997 L 701.915 115.997 L 701.915 115.997" fill="none" vector-effect="non-scaling-stroke" stroke-width="1" stroke="rgb(255,255,255)" stroke-linejoin="miter" stroke-linecap="square" stroke-miterlimit="3"/><path d=" M 65.141 261.871 L 34.892 261.871 L 34.892 184.058 L 62.148 184.058 L 62.148 184.058 Q 76.31 184.058 83.632 189.482 L 83.632 189.482 L 83.632 189.482 Q 90.954 194.907 90.954 205.382 L 90.954 205.382 L 90.954 205.382 Q 90.954 211.1 88.014 215.456 L 88.014 215.456 L 88.014 215.456 Q 85.075 219.811 79.837 221.842 L 79.837 221.842 L 79.837 221.842 Q 85.823 223.339 89.27 227.881 L 89.27 227.881 L 89.27 227.881 Q 92.717 232.424 92.717 238.997 L 92.717 238.997 L 92.717 238.997 Q 92.717 250.22 85.556 255.992 L 85.556 255.992 L 85.556 255.992 Q 78.394 261.764 65.141 261.871 L 65.141 261.871 L 65.141 261.871 Z  M 65.622 227.988 L 50.925 227.988 L 50.925 248.991 L 64.66 248.991 L 64.66 248.991 Q 70.325 248.991 73.504 246.292 L 73.504 246.292 L 73.504 246.292 Q 76.684 243.593 76.684 238.837 L 76.684 238.837 L 76.684 238.837 Q 76.684 228.148 65.622 227.988 L 65.622 227.988 L 65.622 227.988 Z  M 50.925 197.045 L 50.925 216.658 L 62.789 216.658 L 62.789 216.658 Q 74.921 216.444 74.921 206.985 L 74.921 206.985 L 74.921 206.985 Q 74.921 201.694 71.848 199.369 L 71.848 199.369 L 71.848 199.369 Q 68.775 197.045 62.148 197.045 L 62.148 197.045 L 50.925 197.045 L 50.925 197.045 Z  M 120.775 184.058 L 120.775 248.991 L 154.818 248.991 L 154.818 261.871 L 104.742 261.871 L 104.742 184.058 L 120.775 184.058 L 120.775 184.058 Z  M 227.928 221.254 L 227.928 224.728 L 227.928 224.728 Q 227.928 236.218 223.866 244.876 L 223.866 244.876 L 223.866 244.876 Q 219.805 253.534 212.243 258.237 L 212.243 258.237 L 212.243 258.237 Q 204.68 262.94 194.9 262.94 L 194.9 262.94 L 194.9 262.94 Q 185.227 262.94 177.638 258.29 L 177.638 258.29 L 177.638 258.29 Q 170.049 253.641 165.881 245.01 L 165.881 245.01 L 165.881 245.01 Q 161.712 236.379 161.659 225.156 L 161.659 225.156 L 161.659 221.308 L 161.659 221.308 Q 161.659 209.817 165.801 201.08 L 165.801 201.08 L 165.801 201.08 Q 169.942 192.342 177.505 187.665 L 177.505 187.665 L 177.505 187.665 Q 185.067 182.989 194.793 182.989 L 194.793 182.989 L 194.793 182.989 Q 204.52 182.989 212.082 187.665 L 212.082 187.665 L 212.082 187.665 Q 219.644 192.342 223.786 201.08 L 223.786 201.08 L 223.786 201.08 Q 227.928 209.817 227.928 221.254 L 227.928 221.254 L 227.928 221.254 Z  M 211.681 224.995 L 211.681 221.201 L 211.681 221.201 Q 211.681 208.962 207.299 202.603 L 207.299 202.603 L 207.299 202.603 Q 202.917 196.243 194.793 196.243 L 194.793 196.243 L 194.793 196.243 Q 186.724 196.243 182.341 202.522 L 182.341 202.522 L 182.341 202.522 Q 177.959 208.802 177.905 220.934 L 177.905 220.934 L 177.905 224.728 L 177.905 224.728 Q 177.905 236.646 182.288 243.219 L 182.288 243.219 L 182.288 243.219 Q 186.67 249.793 194.9 249.793 L 194.9 249.793 L 194.9 249.793 Q 202.97 249.793 207.299 243.46 L 207.299 243.46 L 207.299 243.46 Q 211.628 237.127 211.681 224.995 L 211.681 224.995 L 211.681 224.995 Z  M 284.631 235.951 L 300.664 235.951 L 300.664 235.951 Q 299.756 248.51 291.392 255.725 L 291.392 255.725 L 291.392 255.725 Q 283.028 262.94 269.346 262.94 L 269.346 262.94 L 269.346 262.94 Q 254.382 262.94 245.805 252.866 L 245.805 252.866 L 245.805 252.866 Q 237.227 242.792 237.227 225.209 L 237.227 225.209 L 237.227 220.453 L 237.227 220.453 Q 237.227 209.23 241.182 200.679 L 241.182 200.679 L 241.182 200.679 Q 245.137 192.128 252.485 187.558 L 252.485 187.558 L 252.485 187.558 Q 259.834 182.989 269.56 182.989 L 269.56 182.989 L 269.56 182.989 Q 283.028 182.989 291.258 190.204 L 291.258 190.204 L 291.258 190.204 Q 299.488 197.419 300.771 210.459 L 300.771 210.459 L 284.738 210.459 L 284.738 210.459 Q 284.15 202.923 280.543 199.53 L 280.543 199.53 L 280.543 199.53 Q 276.935 196.136 269.56 196.136 L 269.56 196.136 L 269.56 196.136 Q 261.544 196.136 257.562 201.881 L 257.562 201.881 L 257.562 201.881 Q 253.581 207.626 253.474 219.704 L 253.474 219.704 L 253.474 225.583 L 253.474 225.583 Q 253.474 238.196 257.295 244.021 L 257.295 244.021 L 257.295 244.021 Q 261.116 249.846 269.346 249.846 L 269.346 249.846 L 269.346 249.846 Q 276.775 249.846 280.436 246.453 L 280.436 246.453 L 280.436 246.453 Q 284.097 243.059 284.631 235.951 L 284.631 235.951 L 284.631 235.951 Z  M 355.55 261.871 L 335.562 230.66 L 327.225 239.639 L 327.225 261.871 L 311.192 261.871 L 311.192 184.058 L 327.225 184.058 L 327.225 219.33 L 334.28 209.657 L 354.107 184.058 L 373.828 184.058 L 346.198 218.636 L 374.629 261.871 L 355.55 261.871 L 355.55 261.871 Z  M 425.721 235.951 L 441.754 235.951 L 441.754 235.951 Q 440.845 248.51 432.481 255.725 L 432.481 255.725 L 432.481 255.725 Q 424.118 262.94 410.436 262.94 L 410.436 262.94 L 410.436 262.94 Q 395.472 262.94 386.895 252.866 L 386.895 252.866 L 386.895 252.866 Q 378.317 242.792 378.317 225.209 L 378.317 225.209 L 378.317 220.453 L 378.317 220.453 Q 378.317 209.23 382.272 200.679 L 382.272 200.679 L 382.272 200.679 Q 386.226 192.128 393.575 187.558 L 393.575 187.558 L 393.575 187.558 Q 400.923 182.989 410.65 182.989 L 410.65 182.989 L 410.65 182.989 Q 424.118 182.989 432.348 190.204 L 432.348 190.204 L 432.348 190.204 Q 440.578 197.419 441.861 210.459 L 441.861 210.459 L 425.828 210.459 L 425.828 210.459 Q 425.24 202.923 421.633 199.53 L 421.633 199.53 L 421.633 199.53 Q 418.025 196.136 410.65 196.136 L 410.65 196.136 L 410.65 196.136 Q 402.634 196.136 398.652 201.881 L 398.652 201.881 L 398.652 201.881 Q 394.67 207.626 394.564 219.704 L 394.564 219.704 L 394.564 225.583 L 394.564 225.583 Q 394.564 238.196 398.385 244.021 L 398.385 244.021 L 398.385 244.021 Q 402.206 249.846 410.436 249.846 L 410.436 249.846 L 410.436 249.846 Q 417.865 249.846 421.526 246.453 L 421.526 246.453 L 421.526 246.453 Q 425.186 243.059 425.721 235.951 L 425.721 235.951 L 425.721 235.951 Z  M 515.612 184.058 L 515.612 261.871 L 499.579 261.871 L 499.579 228.523 L 468.315 228.523 L 468.315 261.871 L 452.282 261.871 L 452.282 184.058 L 468.315 184.058 L 468.315 215.589 L 499.579 215.589 L 499.579 184.058 L 515.612 184.058 L 515.612 184.058 Z  M 578.942 261.871 L 573.544 245.838 L 545.433 245.838 L 540.089 261.871 L 523.041 261.871 L 552.007 184.058 L 566.864 184.058 L 595.991 261.871 L 578.942 261.871 L 578.942 261.871 Z  M 559.435 203.725 L 549.762 232.851 L 569.216 232.851 L 559.435 203.725 L 559.435 203.725 Z  M 620.307 184.058 L 620.307 261.871 L 604.274 261.871 L 604.274 184.058 L 620.307 184.058 L 620.307 184.058 Z  M 698.441 184.058 L 698.441 261.871 L 682.408 261.871 L 651.197 210.673 L 651.197 261.871 L 635.164 261.871 L 635.164 184.058 L 651.197 184.058 L 682.461 235.363 L 682.461 184.058 L 698.441 184.058 L 698.441 184.058 Z  M 65.141 101.542 L 34.892 101.542 L 34.892 23.729 L 62.148 23.729 L 62.148 23.729 Q 76.31 23.729 83.632 29.153 L 83.632 29.153 L 83.632 29.153 Q 90.954 34.578 90.954 45.053 L 90.954 45.053 L 90.954 45.053 Q 90.954 50.771 88.014 55.127 L 88.014 55.127 L 88.014 55.127 Q 85.075 59.482 79.837 61.513 L 79.837 61.513 L 79.837 61.513 Q 85.823 63.009 89.27 67.552 L 89.27 67.552 L 89.27 67.552 Q 92.717 72.095 92.717 78.668 L 92.717 78.668 L 92.717 78.668 Q 92.717 89.891 85.556 95.663 L 85.556 95.663 L 85.556 95.663 Q 78.394 101.435 65.141 101.542 L 65.141 101.542 L 65.141 101.542 Z  M 65.622 67.659 L 50.925 67.659 L 50.925 88.662 L 64.66 88.662 L 64.66 88.662 Q 70.325 88.662 73.504 85.963 L 73.504 85.963 L 73.504 85.963 Q 76.684 83.264 76.684 78.508 L 76.684 78.508 L 76.684 78.508 Q 76.684 67.819 65.622 67.659 L 65.622 67.659 L 65.622 67.659 Z  M 50.925 36.715 L 50.925 56.329 L 62.789 56.329 L 62.789 56.329 Q 74.921 56.115 74.921 46.656 L 74.921 46.656 L 74.921 46.656 Q 74.921 41.365 71.848 39.04 L 71.848 39.04 L 71.848 39.04 Q 68.775 36.715 62.148 36.715 L 62.148 36.715 L 50.925 36.715 L 50.925 36.715 Z  M 120.775 23.729 L 120.775 88.662 L 154.818 88.662 L 154.818 101.542 L 104.742 101.542 L 104.742 23.729 L 120.775 23.729 L 120.775 23.729 Z  M 227.928 60.925 L 227.928 64.399 L 227.928 64.399 Q 227.928 75.889 223.866 84.547 L 223.866 84.547 L 223.866 84.547 Q 219.805 93.205 212.243 97.908 L 212.243 97.908 L 212.243 97.908 Q 204.68 102.611 194.9 102.611 L 194.9 102.611 L 194.9 102.611 Q 185.227 102.611 177.638 97.961 L 177.638 97.961 L 177.638 97.961 Q 170.049 93.312 165.881 84.681 L 165.881 84.681 L 165.881 84.681 Q 161.712 76.049 161.659 64.826 L 161.659 64.826 L 161.659 60.979 L 161.659 60.979 Q 161.659 49.488 165.801 40.75 L 165.801 40.75 L 165.801 40.75 Q 169.942 32.012 177.505 27.336 L 177.505 27.336 L 177.505 27.336 Q 185.067 22.66 194.793 22.66 L 194.793 22.66 L 194.793 22.66 Q 204.52 22.66 212.082 27.336 L 212.082 27.336 L 212.082 27.336 Q 219.644 32.012 223.786 40.75 L 223.786 40.75 L 223.786 40.75 Q 227.928 49.488 227.928 60.925 L 227.928 60.925 L 227.928 60.925 Z  M 211.681 64.666 L 211.681 60.872 L 211.681 60.872 Q 211.681 48.633 207.299 42.273 L 207.299 42.273 L 207.299 42.273 Q 202.917 35.914 194.793 35.914 L 194.793 35.914 L 194.793 35.914 Q 186.724 35.914 182.341 42.193 L 182.341 42.193 L 182.341 42.193 Q 177.959 48.473 177.905 60.604 L 177.905 60.604 L 177.905 64.399 L 177.905 64.399 Q 177.905 76.317 182.288 82.89 L 182.288 82.89 L 182.288 82.89 Q 186.67 89.464 194.9 89.464 L 194.9 89.464 L 194.9 89.464 Q 202.97 89.464 207.299 83.131 L 207.299 83.131 L 207.299 83.131 Q 211.628 76.798 211.681 64.666 L 211.681 64.666 L 211.681 64.666 Z  M 284.631 75.622 L 300.664 75.622 L 300.664 75.622 Q 299.756 88.181 291.392 95.396 L 291.392 95.396 L 291.392 95.396 Q 283.028 102.611 269.346 102.611 L 269.346 102.611 L 269.346 102.611 Q 254.382 102.611 245.805 92.537 L 245.805 92.537 L 245.805 92.537 Q 237.227 82.463 237.227 64.88 L 237.227 64.88 L 237.227 60.123 L 237.227 60.123 Q 237.227 48.9 241.182 40.35 L 241.182 40.35 L 241.182 40.35 Q 245.137 31.799 252.485 27.229 L 252.485 27.229 L 252.485 27.229 Q 259.834 22.66 269.56 22.66 L 269.56 22.66 L 269.56 22.66 Q 283.028 22.66 291.258 29.875 L 291.258 29.875 L 291.258 29.875 Q 299.488 37.089 300.771 50.13 L 300.771 50.13 L 284.738 50.13 L 284.738 50.13 Q 284.15 42.594 280.543 39.2 L 280.543 39.2 L 280.543 39.2 Q 276.935 35.807 269.56 35.807 L 269.56 35.807 L 269.56 35.807 Q 261.544 35.807 257.562 41.552 L 257.562 41.552 L 257.562 41.552 Q 253.581 47.297 253.474 59.375 L 253.474 59.375 L 253.474 65.254 L 253.474 65.254 Q 253.474 77.867 257.295 83.692 L 257.295 83.692 L 257.295 83.692 Q 261.116 89.517 269.346 89.517 L 269.346 89.517 L 269.346 89.517 Q 276.775 89.517 280.436 86.124 L 280.436 86.124 L 280.436 86.124 Q 284.097 82.73 284.631 75.622 L 284.631 75.622 L 284.631 75.622 Z  M 355.55 101.542 L 335.562 70.331 L 327.225 79.31 L 327.225 101.542 L 311.192 101.542 L 311.192 23.729 L 327.225 23.729 L 327.225 59.001 L 334.28 49.328 L 354.107 23.729 L 373.828 23.729 L 346.198 58.306 L 374.629 101.542 L 355.55 101.542 L 355.55 101.542 Z  M 425.721 75.622 L 441.754 75.622 L 441.754 75.622 Q 440.845 88.181 432.481 95.396 L 432.481 95.396 L 432.481 95.396 Q 424.118 102.611 410.436 102.611 L 410.436 102.611 L 410.436 102.611 Q 395.472 102.611 386.895 92.537 L 386.895 92.537 L 386.895 92.537 Q 378.317 82.463 378.317 64.88 L 378.317 64.88 L 378.317 60.123 L 378.317 60.123 Q 378.317 48.9 382.272 40.35 L 382.272 40.35 L 382.272 40.35 Q 386.226 31.799 393.575 27.229 L 393.575 27.229 L 393.575 27.229 Q 400.923 22.66 410.65 22.66 L 410.65 22.66 L 410.65 22.66 Q 424.118 22.66 432.348 29.875 L 432.348 29.875 L 432.348 29.875 Q 440.578 37.089 441.861 50.13 L 441.861 50.13 L 425.828 50.13 L 425.828 50.13 Q 425.24 42.594 421.633 39.2 L 421.633 39.2 L 421.633 39.2 Q 418.025 35.807 410.65 35.807 L 410.65 35.807 L 410.65 35.807 Q 402.634 35.807 398.652 41.552 L 398.652 41.552 L 398.652 41.552 Q 394.67 47.297 394.564 59.375 L 394.564 59.375 L 394.564 65.254 L 394.564 65.254 Q 394.564 77.867 398.385 83.692 L 398.385 83.692 L 398.385 83.692 Q 402.206 89.517 410.436 89.517 L 410.436 89.517 L 410.436 89.517 Q 417.865 89.517 421.526 86.124 L 421.526 86.124 L 421.526 86.124 Q 425.186 82.73 425.721 75.622 L 425.721 75.622 L 425.721 75.622 Z  M 515.612 23.729 L 515.612 101.542 L 499.579 101.542 L 499.579 68.193 L 468.315 68.193 L 468.315 101.542 L 452.282 101.542 L 452.282 23.729 L 468.315 23.729 L 468.315 55.26 L 499.579 55.26 L 499.579 23.729 L 515.612 23.729 L 515.612 23.729 Z  M 578.942 101.542 L 573.544 85.509 L 545.433 85.509 L 540.089 101.542 L 523.041 101.542 L 552.007 23.729 L 566.864 23.729 L 595.991 101.542 L 578.942 101.542 L 578.942 101.542 Z  M 559.435 43.396 L 549.762 72.522 L 569.216 72.522 L 559.435 43.396 L 559.435 43.396 Z  M 620.307 23.729 L 620.307 101.542 L 604.274 101.542 L 604.274 23.729 L 620.307 23.729 L 620.307 23.729 Z  M 698.441 23.729 L 698.441 101.542 L 682.408 101.542 L 651.197 50.343 L 651.197 101.542 L 635.164 101.542 L 635.164 23.729 L 651.197 23.729 L 682.461 75.034 L 682.461 23.729 L 698.441 23.729 L 698.441 23.729 Z " fill-rule="evenodd" fill="rgb(255,255,255)"/></g></g></svg>